<?xml version="1.0" encoding="UTF-8" standalone="no"?>
<!DOCTYPE svg PUBLIC "-//W3C//DTD SVG 1.1//EN" "http://www.w3.org/Graphics/SVG/1.1/DTD/svg11.dtd">
<svg version="1.1" xmlns="http://www.w3.org/2000/svg" xmlns:xlink="http://www.w3.org/1999/xlink" preserveAspectRatio="xMidYMid meet" viewBox="0 0 640 640" width="640" height="640"><defs><path d="M330.15 277.02C323.9 277.02 319.98 277.02 318.42 277.02C318.27 277.02 318.15 276.9 318.15 276.75C318.15 275.19 318.15 271.28 318.15 265.02" id="b6NQR2iIFy"></path><path d="M319.68 272.22L325.64 272.22L325.64 276.22L319.68 276.22L319.68 272.22Z" id="b1ZHPEL5Zh"></path><path d="M318.72 269.13L324.67 269.13L324.67 274.6L318.72 274.6L318.72 269.13Z" id="bL4LoJkB3"></path><path d="M288.65 291.02L292.74 288.15L301.32 300.41L297.6 299.59L297.23 303.27L288.65 291.02Z" id="b2CSvvzNbE"></path><path d="M287.55 295.82L291.13 288.15L295.65 290.26L292.06 297.93L289.3 303.81L288.17 300.48L284.78 301.7L287.55 295.82Z" id="f3q0o5mdwJ"></path><path d="M293.57 285.15L293.58 285.15L293.59 285.16L293.61 285.16L293.62 285.16L293.63 285.17L293.64 285.17L293.65 285.17L293.66 285.18L293.66 285.19L293.67 285.19L293.68 285.2L293.69 285.21L293.7 285.21L293.71 285.22L293.71 285.23L293.72 285.24L293.73 285.25L293.74 285.26L293.74 285.27L293.75 285.28L293.75 285.29L293.76 285.3L293.77 285.32L293.77 285.33L293.78 285.34L293.79 285.35L293.79 285.37L293.8 285.38L293.8 285.39L293.81 285.41L293.81 285.42L293.82 285.44L293.82 285.45L293.83 285.46L293.83 285.48L293.84 285.49L293.84 285.51L293.85 285.53L294.11 286.5L294.19 286.52L294.37 286.59L294.55 286.66L294.72 286.74L294.89 286.82L294.9 286.83L295.78 286.32L295.79 286.31L295.81 286.31L295.82 286.3L295.83 286.29L295.85 286.29L295.86 286.28L295.88 286.27L295.89 286.27L295.9 286.26L295.92 286.25L295.93 286.25L295.94 286.24L295.96 286.24L295.97 286.23L295.98 286.23L296 286.23L296.01 286.22L296.02 286.22L296.03 286.22L296.04 286.21L296.06 286.21L296.07 286.21L296.08 286.21L296.09 286.21L296.1 286.21L296.11 286.21L296.13 286.21L296.14 286.21L296.15 286.21L296.16 286.21L296.17 286.22L296.18 286.22L296.19 286.22L296.2 286.23L296.21 286.23L296.22 286.24L296.23 286.24L296.24 286.25L296.25 286.26L296.25 286.27L297.53 287.54L297.54 287.55L297.54 287.56L297.55 287.57L297.56 287.58L297.56 287.59L297.57 287.6L297.57 287.61L297.58 287.62L297.58 287.63L297.58 287.64L297.59 287.65L297.59 287.66L297.59 287.67L297.59 287.68L297.59 287.7L297.59 287.71L297.59 287.72L297.59 287.73L297.59 287.74L297.59 287.76L297.58 287.77L297.58 287.78L297.58 287.79L297.58 287.81L297.57 287.82L297.57 287.83L297.56 287.84L297.56 287.86L297.55 287.87L297.55 287.88L297.54 287.9L297.53 287.91L297.53 287.92L297.52 287.94L297.51 287.95L297.51 287.96L297.5 287.98L297.49 287.99L297.48 288L297.47 288.02L296.97 288.89L296.98 288.91L297.06 289.08L297.14 289.25L297.21 289.43L297.27 289.61L297.3 289.69L298.27 289.95L298.29 289.95L298.3 289.96L298.32 289.96L298.33 289.97L298.35 289.97L298.36 289.97L298.38 289.98L298.39 289.98L298.41 289.99L298.42 289.99L298.43 290L298.45 290.01L298.46 290.01L298.47 290.02L298.48 290.02L298.49 290.03L298.51 290.04L298.52 290.04L298.53 290.05L298.54 290.06L298.55 290.06L298.56 290.07L298.57 290.08L298.58 290.09L298.58 290.1L298.59 290.1L298.6 290.11L298.61 290.12L298.61 290.13L298.62 290.14L298.62 290.15L298.63 290.16L298.63 290.17L298.64 290.18L298.64 290.19L298.64 290.2L298.65 290.21L298.65 290.23L298.65 290.24L298.65 290.25L298.65 292.05L298.65 292.06L298.65 292.07L298.65 292.09L298.64 292.1L298.64 292.11L298.64 292.12L298.63 292.13L298.63 292.14L298.62 292.15L298.62 292.16L298.61 292.17L298.61 292.18L298.6 292.18L298.59 292.19L298.58 292.2L298.58 292.21L298.57 292.22L298.56 292.22L298.55 292.23L298.54 292.24L298.53 292.24L298.52 292.25L298.51 292.26L298.49 292.26L298.48 292.27L298.47 292.28L298.46 292.28L298.45 292.29L298.43 292.29L298.42 292.3L298.41 292.3L298.39 292.31L298.38 292.31L298.36 292.32L298.35 292.33L298.33 292.33L298.32 292.34L298.3 292.34L298.29 292.35L298.27 292.35L297.3 292.61L297.27 292.69L297.21 292.87L297.14 293.05L297.06 293.22L296.98 293.39L296.97 293.41L297.47 294.28L297.48 294.29L297.49 294.31L297.5 294.32L297.51 294.33L297.51 294.35L297.52 294.36L297.53 294.37L297.53 294.39L297.54 294.4L297.55 294.41L297.55 294.43L297.56 294.44L297.56 294.45L297.57 294.47L297.57 294.48L297.58 294.49L297.58 294.5L297.58 294.52L297.58 294.53L297.59 294.54L297.59 294.55L297.59 294.57L297.59 294.58L297.59 294.59L297.59 294.6L297.59 294.61L297.59 294.62L297.59 294.64L297.59 294.65L297.58 294.66L297.58 294.67L297.58 294.68L297.57 294.69L297.57 294.7L297.56 294.71L297.56 294.72L297.55 294.73L297.54 294.74L297.54 294.75L297.53 294.76L296.25 296.03L296.25 296.04L296.24 296.05L296.23 296.05L296.22 296.06L296.21 296.06L296.2 296.07L296.19 296.07L296.18 296.08L296.17 296.08L296.16 296.08L296.15 296.09L296.14 296.09L296.13 296.09L296.11 296.09L296.1 296.09L296.09 296.09L296.08 296.09L296.07 296.09L296.06 296.09L296.04 296.08L296.03 296.08L296.02 296.08L296.01 296.08L296 296.07L295.98 296.07L295.97 296.06L295.96 296.06L295.94 296.05L295.93 296.05L295.92 296.04L295.9 296.04L295.89 296.03L295.88 296.03L295.86 296.02L295.85 296.01L295.83 296.01L295.82 296L295.81 295.99L295.79 295.98L295.78 295.98L294.91 295.47L294.89 295.48L294.72 295.57L294.55 295.64L294.37 295.71L294.19 295.78L294.11 295.8L293.85 296.78L293.84 296.79L293.84 296.81L293.83 296.82L293.83 296.84L293.82 296.85L293.82 296.87L293.81 296.88L293.81 296.89L293.8 296.91L293.8 296.92L293.79 296.93L293.79 296.95L293.78 296.96L293.77 296.97L293.77 296.99L293.76 297L293.75 297.01L293.75 297.02L293.74 297.03L293.74 297.04L293.73 297.05L293.72 297.06L293.71 297.07L293.71 297.08L293.7 297.09L293.69 297.09L293.68 297.1L293.67 297.11L293.66 297.12L293.66 297.12L293.65 297.13L293.64 297.13L293.63 297.14L293.62 297.14L293.61 297.14L293.59 297.15L293.58 297.15L293.57 297.15L293.56 297.15L293.55 297.15L291.75 297.15L291.74 297.15L291.72 297.15L291.71 297.15L291.7 297.15L291.69 297.14L291.68 297.14L291.67 297.14L291.66 297.13L291.65 297.13L291.64 297.12L291.63 297.12L291.62 297.11L291.61 297.1L291.6 297.09L291.59 297.09L291.58 297.08L291.58 297.07L291.57 297.06L291.56 297.05L291.55 297.04L291.55 297.03L291.54 297.02L291.53 297.01L291.53 297L291.52 296.99L291.51 296.97L291.51 296.96L291.5 296.95L291.5 296.93L291.49 296.92L291.49 296.91L291.48 296.89L291.48 296.88L291.47 296.87L291.47 296.85L291.46 296.84L291.46 296.82L291.46 296.81L291.45 296.79L291.45 296.78L291.19 295.8L291.11 295.78L290.93 295.71L290.75 295.64L290.58 295.57L290.41 295.48L290.39 295.47L289.52 295.97L289.51 295.98L289.49 295.99L289.48 296L289.47 296L289.45 296.01L289.44 296.02L289.42 296.03L289.41 296.03L289.4 296.04L289.39 296.05L289.37 296.05L289.36 296.06L289.35 296.06L289.33 296.07L289.32 296.07L289.31 296.07L289.29 296.08L289.28 296.08L289.27 296.08L289.26 296.09L289.24 296.09L289.23 296.09L289.22 296.09L289.21 296.09L289.2 296.09L289.19 296.09L289.17 296.09L289.16 296.09L289.15 296.09L289.14 296.08L289.13 296.08L289.12 296.08L289.11 296.07L289.1 296.07L289.09 296.06L289.08 296.06L289.07 296.05L289.06 296.04L289.05 296.03L289.04 296.03L287.77 294.75L287.76 294.74L287.75 294.74L287.75 294.73L287.74 294.72L287.73 294.71L287.73 294.7L287.72 294.69L287.72 294.68L287.72 294.67L287.71 294.66L287.71 294.65L287.71 294.64L287.71 294.62L287.71 294.61L287.71 294.6L287.71 294.59L287.71 294.58L287.71 294.57L287.71 294.56L287.71 294.54L287.72 294.53L287.72 294.52L287.72 294.51L287.73 294.49L287.73 294.48L287.74 294.47L287.74 294.46L287.74 294.44L287.75 294.43L287.76 294.42L287.76 294.4L287.77 294.39L287.77 294.38L287.78 294.36L287.79 294.35L287.79 294.33L287.8 294.32L287.81 294.3L287.81 294.29L287.82 294.28L288.33 293.41L288.32 293.39L288.23 293.22L288.16 293.05L288.09 292.87L288.02 292.69L288 292.61L287.02 292.35L287.01 292.35L286.99 292.34L286.98 292.34L286.96 292.33L286.95 292.33L286.93 292.32L286.92 292.31L286.9 292.31L286.89 292.3L286.88 292.3L286.86 292.29L286.85 292.29L286.84 292.28L286.83 292.28L286.81 292.27L286.8 292.26L286.79 292.26L286.78 292.25L286.77 292.24L286.76 292.24L286.75 292.23L286.74 292.22L286.73 292.22L286.72 292.21L286.71 292.2L286.7 292.19L286.7 292.18L286.69 292.18L286.68 292.17L286.68 292.16L286.67 292.15L286.67 292.14L286.66 292.13L286.66 292.12L286.66 292.11L286.65 292.1L286.65 292.09L286.65 292.07L286.65 292.06L286.65 292.05L286.65 290.25L286.65 290.24L286.65 290.23L286.65 290.21L286.65 290.2L286.66 290.19L286.66 290.18L286.66 290.17L286.67 290.16L286.67 290.15L286.68 290.14L286.68 290.13L286.69 290.12L286.7 290.11L286.7 290.1L286.71 290.1L286.72 290.09L286.73 290.08L286.74 290.07L286.75 290.06L286.76 290.06L286.77 290.05L286.78 290.04L286.79 290.04L286.8 290.03L286.81 290.02L286.83 290.02L286.84 290.01L286.85 290.01L286.86 290L286.88 289.99L286.89 289.99L286.9 289.98L286.92 289.98L286.93 289.97L286.95 289.97L286.96 289.97L286.98 289.96L286.99 289.96L287.01 289.95L287.02 289.95L288 289.69L288.02 289.61L288.09 289.43L288.16 289.25L288.23 289.08L288.32 288.91L288.33 288.89L287.82 288.02L287.81 288.01L287.81 287.99L287.8 287.98L287.79 287.96L287.79 287.95L287.78 287.94L287.77 287.92L287.77 287.91L287.76 287.9L287.76 287.88L287.75 287.87L287.74 287.86L287.74 287.84L287.74 287.83L287.73 287.82L287.73 287.8L287.72 287.79L287.72 287.78L287.72 287.77L287.71 287.75L287.71 287.74L287.71 287.73L287.71 287.72L287.71 287.71L287.71 287.7L287.71 287.68L287.71 287.67L287.71 287.66L287.71 287.65L287.71 287.64L287.72 287.63L287.72 287.62L287.72 287.61L287.73 287.6L287.73 287.59L287.74 287.58L287.75 287.57L287.75 287.56L287.76 287.55L287.77 287.54L289.04 286.27L289.05 286.26L289.06 286.26L289.07 286.25L289.08 286.24L289.09 286.24L289.1 286.23L289.11 286.23L289.12 286.22L289.13 286.22L289.14 286.21L289.15 286.21L289.16 286.21L289.17 286.21L289.19 286.21L289.2 286.21L289.21 286.21L289.22 286.21L289.23 286.21L289.24 286.21L289.26 286.21L289.27 286.21L289.28 286.22L289.29 286.22L289.31 286.22L289.32 286.23L289.33 286.23L289.35 286.24L289.36 286.24L289.37 286.25L289.39 286.25L289.4 286.26L289.41 286.26L289.42 286.27L289.44 286.28L289.45 286.29L289.47 286.29L289.48 286.3L289.49 286.31L289.51 286.32L289.52 286.32L290.39 286.83L290.41 286.82L290.58 286.74L290.75 286.66L290.93 286.59L291.11 286.52L291.19 286.5L291.45 285.53L291.45 285.51L291.46 285.49L291.46 285.48L291.46 285.46L291.47 285.45L291.47 285.44L291.48 285.42L291.48 285.41L291.49 285.39L291.49 285.38L291.5 285.37L291.5 285.35L291.51 285.34L291.51 285.33L291.52 285.32L291.53 285.3L291.53 285.29L291.54 285.28L291.55 285.27L291.55 285.26L291.56 285.25L291.57 285.24L291.58 285.23L291.58 285.22L291.59 285.21L291.6 285.21L291.61 285.2L291.62 285.19L291.63 285.19L291.64 285.18L291.65 285.17L291.66 285.17L291.67 285.17L291.68 285.16L291.69 285.16L291.7 285.16L291.71 285.15L291.72 285.15L291.74 285.15L291.75 285.15L293.55 285.15L293.56 285.15L293.57 285.15ZM292.43 288.53L292.33 288.55L292.22 288.56L292.12 288.58L292.02 288.6L291.92 288.63L291.82 288.66L291.72 288.69L291.63 288.73L291.53 288.77L291.44 288.82L291.35 288.87L291.27 288.92L291.18 288.97L291.1 289.03L291.02 289.09L290.94 289.16L290.86 289.22L290.79 289.29L290.72 289.37L290.66 289.44L290.59 289.52L290.53 289.6L290.47 289.68L290.42 289.77L290.36 289.85L290.32 289.94L290.27 290.04L290.23 290.13L290.19 290.22L290.16 290.32L290.13 290.42L290.1 290.52L290.08 290.62L290.06 290.72L290.04 290.83L290.03 290.94L290.03 291.04L290.02 291.15L290.03 291.26L290.03 291.37L290.04 291.47L290.06 291.58L290.08 291.68L290.1 291.78L290.13 291.88L290.16 291.98L290.19 292.08L290.23 292.17L290.27 292.27L290.32 292.36L290.36 292.45L290.42 292.53L290.47 292.62L290.53 292.7L290.59 292.78L290.66 292.86L290.72 292.93L290.79 293.01L290.86 293.08L290.94 293.14L291.02 293.21L291.1 293.27L291.18 293.33L291.27 293.38L291.35 293.43L291.44 293.48L291.53 293.53L291.63 293.57L291.72 293.61L291.82 293.64L291.92 293.67L292.02 293.7L292.12 293.72L292.22 293.74L292.33 293.76L292.43 293.77L292.54 293.77L292.65 293.78L292.76 293.77L292.86 293.77L292.97 293.76L293.07 293.74L293.18 293.72L293.28 293.7L293.38 293.67L293.48 293.64L293.57 293.61L293.67 293.57L293.76 293.53L293.85 293.48L293.94 293.43L294.03 293.38L294.12 293.33L294.2 293.27L294.28 293.21L294.36 293.14L294.43 293.08L294.5 293.01L294.57 292.93L294.64 292.86L294.71 292.78L294.77 292.7L294.82 292.62L294.88 292.53L294.93 292.45L294.98 292.36L295.03 292.27L295.07 292.17L295.1 292.08L295.14 291.98L295.17 291.88L295.2 291.78L295.22 291.68L295.24 291.58L295.25 291.47L295.26 291.37L295.27 291.26L295.27 291.15L295.27 291.04L295.26 290.94L295.25 290.83L295.24 290.72L295.22 290.62L295.2 290.52L295.17 290.42L295.14 290.32L295.1 290.22L295.07 290.13L295.03 290.04L294.98 289.94L294.93 289.85L294.88 289.77L294.82 289.68L294.77 289.6L294.71 289.52L294.64 289.44L294.57 289.37L294.5 289.29L294.43 289.22L294.36 289.16L294.28 289.09L294.2 289.03L294.12 288.97L294.03 288.92L293.94 288.87L293.85 288.82L293.76 288.77L293.67 288.73L293.57 288.69L293.48 288.66L293.38 288.63L293.28 288.6L293.18 288.58L293.07 288.56L292.97 288.55L292.86 288.53L292.76 288.53L292.65 288.53L292.54 288.53L292.43 288.53Z" id="aSUyLGFQO"></path><path d="M295.65 291.15C295.65 292.81 294.3 294.15 292.65 294.15C290.99 294.15 289.65 292.81 289.65 291.15C289.65 289.49 290.99 288.15 292.65 288.15C294.3 288.15 295.65 289.49 295.65 291.15Z" id="aKGtXwuAP"></path><path d="M308.12 288.89L325.18 288.89" id="a1nL4y7UW"></path><path d="" id="hf92rwLxK"></path><path d="" id="b1lK1yUh67"></path><path d="M332.65 317.02C332.65 318.12 331.75 319.02 330.65 319.02C329.54 319.02 328.65 318.12 328.65 317.02C328.65 315.91 329.54 315.02 330.65 315.02C331.75 315.02 332.65 315.91 332.65 317.02Z" id="aeKeVh8Xs"></path><path d="M288.65 265.02C288.65 266.12 289.54 267.02 290.65 267.02C291.75 267.02 292.65 266.12 292.65 265.02C292.65 263.91 291.75 263.02 290.65 263.02C289.54 263.02 288.65 263.91 288.65 265.02Z" id="b1cEmDF7bu"></path><path d="M288.65 317.16C288.65 318.27 289.54 319.16 290.65 319.16C291.75 319.16 292.65 318.27 292.65 317.16C292.65 316.06 291.75 315.16 290.65 315.16C289.54 315.16 288.65 316.06 288.65 317.16Z" id="asqpK3STA"></path><path d="M290.65 282.95L290.65 265.02" id="c4zlOrCt92"></path><path d="M330.65 317.02L290.65 317.16" id="bnUrY5gy"></path><path d="M290.65 306.03L290.65 317.02" id="b2zVvO6Wx9"></path><path d="M318.66 265.02L290.65 265.02" id="d1DcTvXSkY"></path><path d="M330.65 277.4L330.65 317.02" id="e7y3g7b6U"></path><path d="M332.65 278.8L328.75 278.8" id="gv6Y8hjiT"></path><path d="M318.82 263.02L332.65 276.85L329.97 279.73L316.14 265.89L318.82 263.02Z" id="d49zfY3gDy"></path><path d="M318.82 265.02L316.82 265.02" id="bVI1LYMMd"></path><path d="M303.18 296.84L325.18 296.84" id="dN3Y8k7pn"></path><path d="M303.18 304.92L325.18 304.92" id="b27N7ow2So"></path></defs><g><g><g><g><use xlink:href="#b6NQR2iIFy" opacity="1" fill-opacity="0" stroke="#5a89ff" stroke-width="4" stroke-opacity="1"></use></g></g><g><use xlink:href="#b1ZHPEL5Zh" opacity="1" fill="#5a89ff" fill-opacity="1"></use></g><g><use xlink:href="#bL4LoJkB3" opacity="1" fill="#5a89ff" fill-opacity="1"></use></g><g><use xlink:href="#b2CSvvzNbE" opacity="1" fill="#5a89ff" fill-opacity="1"></use></g><g><use xlink:href="#f3q0o5mdwJ" opacity="1" fill="#5a89ff" fill-opacity="1"></use></g><g><use xlink:href="#aSUyLGFQO" opacity="1" fill="#5a89ff" fill-opacity="1"></use></g><g><use xlink:href="#aKGtXwuAP" opacity="1" fill="#5a89ff" fill-opacity="1"></use></g><g><g><use xlink:href="#a1nL4y7UW" opacity="1" fill-opacity="0" stroke="#5a89ff" stroke-width="4" stroke-opacity="1"></use></g></g><g><g><use xlink:href="#hf92rwLxK" opacity="1" fill-opacity="0" stroke="#5c5aff" stroke-width="4" stroke-opacity="1"></use></g></g><g><g><use xlink:href="#b1lK1yUh67" opacity="1" fill-opacity="0" stroke="#ff5a85" stroke-width="8" stroke-opacity="1"></use></g></g><g><use xlink:href="#aeKeVh8Xs" opacity="1" fill="#5a89ff" fill-opacity="1"></use></g><g><use xlink:href="#b1cEmDF7bu" opacity="1" fill="#5a89ff" fill-opacity="1"></use></g><g><use xlink:href="#asqpK3STA" opacity="1" fill="#5a89ff" fill-opacity="1"></use></g><g><g><use xlink:href="#c4zlOrCt92" opacity="1" fill-opacity="0" stroke="#5a89ff" stroke-width="4" stroke-opacity="1"></use></g></g><g><g><use xlink:href="#bnUrY5gy" opacity="1" fill-opacity="0" stroke="#5a89ff" stroke-width="4" stroke-opacity="1"></use></g></g><g><g><use xlink:href="#b2zVvO6Wx9" opacity="1" fill-opacity="0" stroke="#5a89ff" stroke-width="4" stroke-opacity="1"></use></g></g><g><g><use xlink:href="#d1DcTvXSkY" opacity="1" fill-opacity="0" stroke="#5a89ff" stroke-width="4" stroke-opacity="1"></use></g></g><g><g><use xlink:href="#e7y3g7b6U" opacity="1" fill-opacity="0" stroke="#5a89ff" stroke-width="4" stroke-opacity="1"></use></g></g><g><g><use xlink:href="#gv6Y8hjiT" opacity="1" fill-opacity="0" stroke="#5a89ff" stroke-width="4" stroke-opacity="1"></use></g></g><g><use xlink:href="#d49zfY3gDy" opacity="1" fill="#5a89ff" fill-opacity="1"></use></g><g><g><use xlink:href="#bVI1LYMMd" opacity="1" fill-opacity="0" stroke="#5a89ff" stroke-width="4" stroke-opacity="1"></use></g></g><g><g><use xlink:href="#dN3Y8k7pn" opacity="1" fill-opacity="0" stroke="#5a89ff" stroke-width="4" stroke-opacity="1"></use></g></g><g><g><use xlink:href="#b27N7ow2So" opacity="1" fill-opacity="0" stroke="#5a89ff" stroke-width="4" stroke-opacity="1"></use></g></g></g></g></svg>