<?xml version="1.0" encoding="UTF-8" standalone="no"?>
<!-- Created with Inkscape (http://www.inkscape.org/) -->

<svg
   xmlns:dc="http://purl.org/dc/elements/1.1/"
   xmlns:cc="http://creativecommons.org/ns#"
   xmlns:rdf="http://www.w3.org/1999/02/22-rdf-syntax-ns#"
   xmlns:svg="http://www.w3.org/2000/svg"
   xmlns="http://www.w3.org/2000/svg"
   xmlns:sodipodi="http://sodipodi.sourceforge.net/DTD/sodipodi-0.dtd"
   xmlns:inkscape="http://www.inkscape.org/namespaces/inkscape"
   width="48"
   height="56"
   viewBox="0 0 12.700002 14.816667"
   version="1.1"
   id="svg543"
   inkscape:version="0.92.4 (unknown)"
   sodipodi:docname="certificate2.svg">
  <defs
     id="defs537" />
  <sodipodi:namedview
     id="base"
     pagecolor="#ffffff"
     bordercolor="#666666"
     borderopacity="1.0"
     inkscape:pageopacity="0.0"
     inkscape:pageshadow="2"
     inkscape:zoom="7.9195959"
     inkscape:cx="76.70839"
     inkscape:cy="30.018381"
     inkscape:document-units="px"
     inkscape:current-layer="layer1"
     showgrid="false"
     inkscape:window-width="1853"
     inkscape:window-height="1023"
     inkscape:window-x="67"
     inkscape:window-y="27"
     inkscape:window-maximized="1"
     units="px"
     inkscape:pagecheckerboard="true" />
  <metadata
     id="metadata540">
    <rdf:RDF>
      <cc:Work
         rdf:about="">
        <dc:format>image/svg+xml</dc:format>
        <dc:type
           rdf:resource="http://purl.org/dc/dcmitype/StillImage" />
        <dc:title></dc:title>
      </cc:Work>
    </rdf:RDF>
  </metadata>
  <g
     inkscape:label="Capa 1"
     inkscape:groupmode="layer"
     id="layer1"
     transform="translate(0,-282.18332)">
    <g
       id="g564"
       transform="translate(-141.04981,175.60714)">
      <path
         inkscape:connector-curvature="0"
         id="path354"
         d="m 142.48934,121.45264 c -0.0613,-0.0126 -0.15282,-0.061 -0.20337,-0.10754 -0.18747,-0.17281 -0.19021,-0.19902 -0.19021,-1.82226 v -1.50682 h 0.51982 0.51981 v 1.22474 1.22474 l 1.88799,-0.0238 c 1.0384,-0.0131 3.18398,-0.0238 4.76796,-0.0238 h 2.87997 v -4.78436 -4.78438 l -1.46086,-0.0105 c -1.63331,-0.0117 -1.56854,-0.002 -1.73806,-0.27409 -0.0803,-0.12908 -0.0814,-0.1481 -0.0918,-1.50197 l -0.0105,-1.37123 h -3.1173 -3.11729 v 2.09718 2.09719 h -0.52054 -0.52055 l 0.01,-2.44672 0.01,-2.44671 0.086,-0.12057 c 0.16508,-0.23146 -0.0482,-0.22 4.09814,-0.22 h 3.77416 l 1.81949,1.81922 1.81948,1.81922 v 5.37211 c 0,5.98253 0.0195,5.5311 -0.2458,5.69607 l -0.13062,0.0812 -2.24058,0.009 c -5.95558,0.0237 -8.50274,0.0249 -8.60461,0.004 z"
         style="fill:#000000;fill-opacity:0.94117647;stroke-width:0.03584933" />
      <path
         inkscape:connector-curvature="0"
         id="path356"
         d="m 142.11891,116.958 c -0.0745,-0.22649 -0.14786,-0.4118 -0.16294,-0.4118 -0.0151,0 -0.20975,0.065 -0.43261,0.14454 -0.22285,0.0795 -0.40876,0.14 -0.41311,0.13444 -0.004,-0.006 0.17622,-0.39728 0.40128,-0.87049 0.30949,-0.65073 0.4007,-0.87437 0.3743,-0.91776 -0.0253,-0.0416 -0.0116,-0.0984 0.0497,-0.20639 0.0785,-0.13811 0.0809,-0.15793 0.0337,-0.27093 -0.0423,-0.10124 -0.0751,-0.12599 -0.19318,-0.14594 -0.19591,-0.0331 -0.22322,-0.08 -0.21081,-0.36177 l 0.0107,-0.24225 0.17439,-0.0582 c 0.13154,-0.0439 0.18555,-0.0843 0.21982,-0.16429 0.0405,-0.0946 0.0358,-0.12303 -0.0441,-0.26289 l -0.0895,-0.15681 0.19776,-0.19776 0.19776,-0.19776 0.15713,0.0878 c 0.14127,0.079 0.16852,0.0832 0.27007,0.0417 0.0909,-0.0371 0.12237,-0.0795 0.16118,-0.21722 l 0.0482,-0.17113 0.27486,-0.0104 0.27486,-0.0104 0.043,0.15383 c 0.0479,0.17118 0.14682,0.27931 0.25558,0.27931 0.0395,0 0.1348,-0.0354 0.21179,-0.0787 l 0.13997,-0.0787 0.17859,0.1759 c 0.0982,0.0968 0.17853,0.20071 0.17846,0.23103 -8e-5,0.0303 -0.0329,0.10887 -0.073,0.17457 -0.0636,0.10429 -0.0673,0.13473 -0.0292,0.23996 0.0374,0.10338 0.0681,0.1264 0.21636,0.16196 l 0.17277,0.0414 v 0.28335 0.28336 l -0.16471,0.044 c -0.12334,0.033 -0.17859,0.0709 -0.21996,0.15088 -0.0516,0.0998 -0.0499,0.11685 0.0256,0.25928 0.0445,0.0838 0.0727,0.17373 0.0627,0.19974 -0.01,0.026 0.20587,0.36802 0.47967,0.76003 0.27381,0.39201 0.49379,0.71677 0.48884,0.72168 -0.005,0.005 -0.21046,-0.0367 -0.4567,-0.0924 -0.24624,-0.0557 -0.45827,-0.0948 -0.47118,-0.0868 -0.0129,0.008 -0.0349,0.15577 -0.0488,0.32843 -0.014,0.17266 -0.0359,0.37482 -0.0486,0.44923 l -0.0233,0.1353 -0.55285,-0.78955 c -0.42117,-0.60147 -0.57075,-0.78955 -0.62794,-0.78955 -0.0629,0 -0.13819,0.13525 -0.46406,0.8335 -0.21394,0.45842 -0.39979,0.84538 -0.41302,0.85991 -0.0132,0.0145 -0.085,-0.15889 -0.15956,-0.38538 z"
         style="fill:#000000;fill-opacity:0.94117647;stroke-width:0.03584933" />
      <path
         inkscape:connector-curvature="0"
         id="path358"
         d="m 145.93164,115.59619 v -0.51981 h 2.9038 2.90379 v 0.51981 0.51982 h -2.90379 -2.9038 z"
         style="fill:#000000;fill-opacity:0.94117647;stroke-width:0.03584933" />
      <path
         inkscape:connector-curvature="0"
         id="path360"
         d="m 147.25807,113.48108 v -0.51981 h 2.24058 2.24058 v 0.51981 0.51982 h -2.24058 -2.24058 z"
         style="fill:#000000;fill-opacity:0.94117647;stroke-width:0.03584933" />
      <path
         inkscape:connector-curvature="0"
         id="path362"
         d="m 145.93164,117.7113 v -0.51981 h 2.9038 2.90379 v 0.51981 0.51982 h -2.90379 -2.9038 z"
         style="fill:#000000;fill-opacity:0.94117647;stroke-width:0.03584933" />
    </g>
  </g>
</svg>
